# xmcd
#
# Track frame offsets:
#	150
#	25619
#	48851
#	70899
#	91047
#	109266
#	124978
#	141333
#	160901
#	176355
#	194599
#	210403
#	219419
#	235611
#	256730
#	277296
#	298768
#	320300
#
# Disc length: 4482 seconds
#
# Revision: 0
# Processed by: cddbd v1.5.2PL0 Copyright (c) Steve Scherf et al.
# Submitted via: EasyCDDAExtractor 12.0.7.1
#
DISCID=06118012
DTITLE=Александр Маршал - Аллея шансона
DYEAR=2011
DGENRE=Chanson
TTITLE0=Белый пепел
TTITLE1=Третий тост
TTITLE2=Батя
TTITLE3=Летят журавли (Дуэт с А. Баталовым)
TTITLE4=До свидания, полк
TTITLE5=Уходят близкие
TTITLE6=Снежный вальс
TTITLE7=Вожак
TTITLE8=Колыма-мама
TTITLE9=Снайпер
TTITLE10=Спасибо тебе
TTITLE11=Медаль
TTITLE12=Горец
TTITLE13=Резня
TTITLE14=Неотправленное письмо
TTITLE15=Серебрится рассвет
TTITLE16=Не забыть
TTITLE17=Бкдем жить
EXTD=
EXTT0=
EXTT1=
EXTT2=
EXTT3=
EXTT4=
EXTT5=
EXTT6=
EXTT7=
EXTT8=
EXTT9=
EXTT10=
EXTT11=
EXTT12=
EXTT13=
EXTT14=
EXTT15=
EXTT16=
EXTT17=
PLAYORDER=
